<?xml version="1.0" encoding="UTF-8"?>
<!-- Created with Inkscape by VulcanSphere (https://github.com/VulcanSphere) -->
<svg id="svg390" width="1706.7" height="824.03" version="1.1" viewBox="0 0 1706.7 824.03" xmlns="http://www.w3.org/2000/svg">
 <g id="g396" transform="translate(-18.401 894.83)">
  <path id="path400" d="m1271.7-71.531c-17.35-2.045-39.577-9.6859-52.821-18.158-29.66-18.973-49.135-51.401-57.316-95.437-2.8819-15.512-3.9469-53.748-1.9519-70.075 8.4676-69.301 46.124-114.29 106.76-127.54 23.241-5.078 67.013-3.2449 91.73 3.8416 3.8848 1.1138 7.3381 2.75 7.6743 3.6361 0.5653 1.4908-6.5944 28.579-7.8987 29.883-0.3196 0.31964-4.3891-0.58796-9.0433-2.0169-13.64-4.1878-26.824-5.8704-46.939-5.9904-21.65-0.12907-34.692 2.5711-50.039 10.36-25.269 12.825-43.489 38.954-51.631 74.041-2.7698 11.937-3.9657 54.627-1.9614 70.017 5.2646 40.425 23.389 70.833 50.805 85.24 15.074 7.9213 27.234 10.588 48.635 10.668 19.446 0.0723 27.591-1.3396 41-7.1066l6.3333-2.724v-85.307l-4.3333-0.72376c-2.3834-0.39807-16.633-2.2463-31.667-4.1071-38.919-4.8174-34.667-3.0108-34.667-14.729v-9.8941h101.33v134.73l-6.1448 3.897c-7.664 4.8603-25.634 11.456-40.522 14.873-12.668 2.9077-43.099 4.2989-57.333 2.6211zm-819.33-1.5483c-43.476-5.9477-70.594-27.378-80.018-63.235-3.9701-15.105-4.709-39.258-4.344-142l0.36236-102 35.333-0.74406 0.0471 94.372c0.0259 51.905 0.58688 102.17 1.2467 111.71 2.7553 39.811 15.499 59.233 44.746 68.194 12.109 3.7099 45.014 3.3946 55.604-0.53294 19.203-7.122 28.346-18.202 34.634-41.969 2.868-10.84 2.9248-12.877 3.3834-121.36l0.46645-110.33h34.65l-0.44867 114.33c-0.44553 113.54-0.46948 114.41-3.4429 125.67-9.4001 35.58-29.932 56.719-63.553 65.433-12.432 3.2223-43.577 4.5328-58.667 2.4684zm339.33-0.1072c-11.367-0.63069-21.419-1.4246-22.339-1.7643-1.3302-0.49123-1.603-31.768-1.3333-152.89l0.33898-152.28 4-1.1613c5.6128-1.6296 75.367-3.238 92.49-2.1327 51.572 3.3291 89.351 26.908 109.63 68.423 12.528 25.65 18.144 56.873 16.789 93.346-2.7388 73.703-35.104 123.08-93.528 142.69-20.819 6.9888-52.741 8.7248-106.04 5.7672zm84.667-33.664c5.1333-1.1393 14.961-4.8493 21.84-8.2446 36.483-18.009 55.155-56.885 55.013-114.55-0.1085-44.307-9.7524-72.915-32.162-95.405-12.163-12.206-21.067-17.744-36.869-22.93-8.5105-2.793-11.503-3.0046-42.489-3.0046-18.333 0-34.383 0.43118-35.667 0.95816-2.1981 0.90263-2.3321 7.9332-2.3129 121.33 0.0107 66.206 0.4711 121.08 1.0219 121.95 1.4656 2.3046 9.9896 2.843 37.624 2.3765 15.942-0.26912 27.968-1.149 34-2.4878zm-850-121.47v-152.68l166 0.68685v30.667l-130.03 0.69205 0.34879 52.321 0.3488 52.321 120.67 0.69384v31.973h-121.33v136h-36zm1528 0.0107v-152.67h165.33v32h-129.33v100h118.67v31.972l-118 0.6944-0.3483 54.333-0.3482 54.333h132.03v32h-168zm-1075.1-198.15c-1.324-0.77022-2.9823-2.913-3.6852-4.7617-0.71873-1.8904-1.9991-3.0535-2.9261-2.658-0.90647 0.38681-4.6481 1.9966-8.3148 3.5774-8.4947 3.6622-12.998 2.2866-16.301-4.9793-1.2577-2.7667-2.3617-5.1876-2.4535-5.3798-0.0917-0.19223-2.9355 0.87522-6.3195 2.3721-7.0249 3.1074-11.751 2.5284-15.28-1.872-1.9967-2.4896-3.6468-2.8786-12.091-2.8502-9.0803 0.0305-10.009-0.2344-13-3.7081-4.0927-4.7536-4.1748-11.091-0.22091-17.062 3.0144-4.5522 15.474-13.382 43.372-30.737 18.192-11.317 34.476-23.263 44.122-32.367 12.846-12.125 24.022-30.263 26.267-42.63 1.089-5.9976 1.4708-5.9926-12.462-0.16342-10.831 4.5317-31.113 8.9369-38.818 8.4311-5.0365-0.33066-6.162-0.90489-6.7624-3.4503-0.67638-2.8674-1.4523-3.076-12.72-3.4191-18.936-0.57664-29.822-6.9603-21.97-12.883 2.9708-2.2409 2.8851-2.2984-6.6278-4.4467-5.3006-1.197-12.285-3.3474-15.52-4.7785-5.0614-2.2389-5.8824-3.1582-5.8824-6.5863 0-2.9085 1.0842-4.7562 4.0157-6.8436 2.2086-1.5727 3.7166-3.3434 3.351-3.935-0.3656-0.59154-3.9424-1.4851-7.9484-1.9856-14.023-1.752-21.045-10.498-13.312-16.58 1.9727-1.5517 4.6705-2.8214 5.995-2.8214 5.6768 0 3.2324-2.8784-6.938-8.1696-18.996-9.8826-31.83-25.68-31.83-39.18 0-7.5078 3.9355-12.065 11.518-13.338 2.8319-0.47532 5.627-0.97444 6.2113-1.1092 0.58429-0.13472-4.3701-4.94-11.01-10.678-18.619-16.092-23.808-23.345-26.684-37.301-1.746-8.471-1.1162-13.524 1.8262-14.653 1.0363-0.39768 5.3915 0.1148 9.6782 1.1388 4.2867 1.024 8.2524 1.8832 8.8129 1.9093 0.5604 0.0261-0.47098-2.2039-2.2919-4.9556-5.2674-7.9596-12.468-25.715-13.457-33.183-1.0085-7.615 0.66268-14.341 4.9029-19.731 2.1612-2.7475 3.8437-3.4166 8.5908-3.4166 3.2468 0 5.9032-0.59973 5.9032-1.3327s-0.94344-6.7997-2.0965-13.482c-1.9366-11.222-1.9226-13.129 0.1839-25.001 3.6705-20.685 8.1834-27.314 18.11-26.602 5.1502 0.36979 6.0538 0.94159 8.0328 5.0833 1.2264 2.5667 4.1025 13.862 6.3913 25.101 5.0057 24.579 11.542 45.115 18.469 58.026 9.0001 16.774 23.364 38.548 30.45 46.158 7.4353 7.9852 11.011 8.5499 5.1042 0.80626-3.4524-4.5264-7.1277-12.848-7.2533-16.424-0.0321-0.91666 1.1711-2.8963 2.674-4.3992l2.7325-2.7325-3.447-7.0453c-5.1142-10.453-5.7002-15.961-1.9757-18.569 2.9157-2.0423 2.9383-2.2322 0.80025-6.7378-5.0798-10.705-3.7716-20.167 2.9928-21.649 1.9238-0.42149 3.922-0.86385 4.4404-0.98304s-0.23164-2.8322-1.6667-6.029c-3.1462-7.0086-3.3496-14.888-0.52529-20.35 1.8822-3.6398 2.6239-3.9906 7.6667-3.6256l5.5828 0.40406 1.0191-9.3082c1.3011-11.884 2.9873-16.99 8.4387-25.557 5.2853-8.3055 8.7968-10.64 11.676-7.761 3.5363 3.5362 4.6129 10.254 5.4406 33.95 1.6224 46.448 6.9468 68.31 22.323 91.664 12.201 18.531 25.837 32.505 45.593 46.725 17.285 12.441 32.26 25.732 33.541 29.769 1.4058 4.4291 4.4243 2.8497 10.97-5.74 17.347-22.763 26.886-29.242 43.308-29.417 7.9308-0.0841 10.902 0.5213 16.358 3.3338 10.825 5.5806 14.402 11.36 15.917 25.725 1.84 17.437 2.3132 19.403 5.6152 23.327 3.8448 4.5693 7.0859 5.0762 10.232 1.6002 2.0189-2.2308 1.9853-2.912-0.46001-9.3476-1.4507-3.8178-2.6436-8.885-2.651-11.261-0.0137-4.3744 5.2071-20.989 6.5934-20.982 1.6248 8e-3 8.0868 21.089 8.0868 26.383 0 3.0876 0.22534 5.6138 0.50076 5.6138 1.4989 0 15.499-6.7679 15.499-7.4925 0-0.47268-1.2692-2.9131-2.8205-5.4231-3.2485-5.2562-3.6458-13.204-1.2395-24.795 1.412-6.8017 1.8448-7.4746 4.0493-6.2948 4.2572 2.2784 10.631 11.071 11.541 15.919 0.47977 2.5574 0.16248 7.3038-0.7051 10.548-0.86757 3.2438-1.2983 6.1768-0.95721 6.5179 0.82701 0.82701 9.9116-2.21 10.771-3.6009 0.3719-0.60175-0.21975-3.6334-1.3148-6.737-1.095-3.1036-1.991-7.1701-1.991-9.0366 0-3.8401 7.6045-20.271 9.3817-20.271 1.6407 0 3.9408 9.0087 3.9149 15.333-0.012 2.9333-1.1733 7.8698-2.5806 10.97s-2.0973 5.9218-1.5333 6.2703c0.9244 0.57131 11.753-9.9577 18.074-17.574 2.2496-2.7105 2.2924-3.2252 0.44398-5.3333-4.9216-5.6132-6.3674-10.821-6.3674-22.934 0-6.6364 0.45-12.042 1-12.012 1.101 0.0599 11.436 16.508 12.795 20.363 1.2529 3.5538 2.9494 1.7796 4.8752-5.0986 1.5611-5.5758 1.4791-6.3289-0.98381-9.0344-4.2828-4.7046-5.6868-8.3542-5.6868-14.783 0-5.0215 0.81998-6.9572 5-11.803 2.75-3.1881 5.9462-7.234 7.1026-8.9907 2.0513-3.1161 2.1571-2.9196 4.3344 8.0488 3.6164 18.219 2.6535 25.578-3.9097 29.878-2.6434 1.7321-6.6505 11.019-5.3259 12.344 0.25437 0.25436 2.5324-0.75878 5.0622-2.2514 6.0017-3.5411 16.876-6.7872 17.788-5.3102 1.0707 1.7324-3.9491 10.75-8.2633 14.845-5.1778 4.9143-13.187 8.0815-17.847 7.058-3.2459-0.71292-4.0768-0.26055-5.8619 3.1915-1.144 2.2122-2.08 4.2792-2.08 4.5934s2.5913 0.0185 5.7584-0.65691c6.4263-1.3706 22.245 0.16095 22.489 2.1774 0.23728 1.9621-11.787 9.7959-17.802 11.598-4.5037 1.3494-6.411 1.2198-12.497-0.84892l-7.1822-2.4413-5.2353 4.7298c-2.8794 2.6014-6.5017 5.1317-8.0494 5.623-5.1181 1.6244-2.9244 3.3801 4.2236 3.3801 5.3262 0 9.4541 1.1581 16.974 4.7621l9.9368 4.7621-3.3078 2.5089c-4.5732 3.4686-14.849 5.7248-21.193 4.653-2.9127-0.49209-9.1972-3.2478-13.966-6.1237-4.7684-2.876-9.5493-5.229-10.624-5.229-2.544 0-16.975 5.3778-19.406 7.232-1.4296 1.0901 0.11506 1.6282 6.4327 2.2408 6.0329 0.58502 12.109 2.5971 22.144 7.3333 7.6066 3.5899 13.662 7.1271 13.457 7.8604-0.54339 1.942-11.428 5.843-16.539 5.9275-5.0693 0.0837-12.581-3.4622-22.831-10.777-3.9694-2.8329-8.5757-5.1506-10.236-5.1506-6.1674 0-16.588 16.847-19.623 31.723-1.8548 9.0932-4.2501 12.918-5.7091 9.1158-1.5178-3.9554 0.74286-13.176 5.6918-23.214 2.6325-5.34 4.4659-10.03 4.0742-10.421-1.5611-1.5611-19.895 2.0659-24.345 4.8163-7.796 4.8182-8.5806 7.7771-9.9868 37.66-1.4654 31.14-4.1156 49.447-8.5667 59.178-6.0646 13.257-27.32 30.49-54.082 43.846-6.9667 3.4769-16.073 8.6336-20.236 11.459-6.9929 4.7467-8.1259 6.2808-14.886 20.154-13.655 28.025-33.211 53.712-45.376 59.601-6.4394 3.1172-7.2334 3.2124-10.577 1.2673zm1183.6-67.484c-161.9-228.44-149.71-210.72-166.48-242.03-8.5429-15.951-16.125-29.002-16.85-29.002-0.7812 0-1.0038 2.3052-0.5473 5.6667 4.2869 31.563 4.7271 48.309 4.7271 179.85v133.15h-44.009l0.6752-404.67 24.069-0.75882 51.908 72.379c28.55 39.809 71.594 99.793 95.656 133.3 39.135 54.497 45.308 63.81 58.549 88.333 8.141 15.078 15.331 27.414 15.977 27.414 1.6876 0 1.462-4.5391-1.4915-30-2.4439-21.067-2.6307-31.91-2.648-153.67l-0.019-131h42.667v405.33h-23.703zm-1644.5-151.7v-199.33h46.667v91.921c0 58.984 0.47116 92.213 1.3149 92.734 0.72319 0.44696 6.637-0.78457 13.142-2.7367l11.827-3.5494 134.14-178.37h26.453c14.549 0 26.453 0.47643 26.453 1.0587s-8.85 12.436-19.667 26.341c-10.817 13.905-40.366 51.947-65.666 84.537-42.114 54.251-46.989 60.037-57.716 68.51-6.4442 5.0902-11.544 9.7298-11.334 10.31 0.21067 0.58042 6.5766 5.9495 14.147 11.931 10.857 8.5795 16.679 14.582 27.569 28.427 7.5931 9.6531 37.334 47.551 66.091 84.218 28.757 36.667 55.253 70.417 58.879 75l6.5932 8.3333h-59.747l-144.62-184h-27.865v184h-46.667zm805.33 0v-199.33h35.347l5.4467 9c2.9957 4.95 31.102 50.925 62.457 102.17 53.316 87.129 57.622 94.627 66.439 115.71 5.1855 12.397 9.822 22.072 10.303 21.5 0.4813-0.57241 4.6747-10.941 9.3187-23.041 8.5949-22.394 19.445-41.553 121.57-214.67l5.8994-10 36.551-0.74192v398.74h-46.667l0.01-133.67c0.01-123.6 0.2062-135.67 2.6603-160.33 1.4596-14.667 2.6567-28.445 2.6602-30.619 0.012-7.3116-3.3387-1.0755-14.302 26.619-10.185 25.729-12.367 29.809-62.022 116l-51.466 89.333-14.203 0.67235-110.12-181.53-9.4091-24.907c-5.175-13.699-9.9786-25.974-10.675-27.277-3.1612-5.9218-3.056 0.85756 0.40282 25.97l3.7279 27.067 0.0706 272.67h-44zm462.67 0v-199.33h46.667v398.67h-46.667z" stroke-width="1.3333"/>
 </g>
</svg>
